<?xml version="1.0" encoding="UTF-8" standalone="no"?>
<!-- Created with Inkscape (http://www.inkscape.org/) -->

<svg
   xmlns:dc="http://purl.org/dc/elements/1.1/"
   xmlns:cc="http://creativecommons.org/ns#"
   xmlns:rdf="http://www.w3.org/1999/02/22-rdf-syntax-ns#"
   xmlns:svg="http://www.w3.org/2000/svg"
   xmlns="http://www.w3.org/2000/svg"
   xmlns:sodipodi="http://sodipodi.sourceforge.net/DTD/sodipodi-0.dtd"
   xmlns:inkscape="http://www.inkscape.org/namespaces/inkscape"
   width="380"
   height="380"
   viewBox="0 0 100.54166 100.54167"
   version="1.1"
   id="svg8"
   inkscape:version="0.92.2 5c3e80d, 2017-08-06"
   sodipodi:docname="logo.svg"
   enable-background="new">
  <defs
     id="defs2">
    <clipPath
       clipPathUnits="userSpaceOnUse"
       id="clipPath9924">
      <g
         id="g9944"
         transform="translate(0.85044642,-0.66145833)">
        <path
           id="path9926"
           d="m 306.71522,181.46179 -3.0948,-3.16513 15.05199,-15.12233 15.05199,-15.12232 -2.74312,-2.88379 c -1.5474,-1.5474 -4.00918,-3.79817 -5.48624,-4.99389 l -2.67278,-2.11009 -4.14985,3.93884 c -3.37615,3.23547 -4.43119,3.8685 -5.4159,3.30581 -2.25077,-1.19572 -15.47401,-15.12232 -16.66973,-17.5841 -4.14984,-7.94801 -0.63303,-18.42813 7.59633,-22.78899 3.93884,-2.03975 10.90214,-2.03975 14.84098,0 3.51682,1.82875 17.93578,16.0367 17.93578,17.5841 0,0.70336 -1.61774,2.88379 -3.58716,4.85321 l -3.65749,3.72783 2.18043,2.67278 c 1.19572,1.47707 3.44648,3.93884 4.99388,5.48624 l 2.8838,2.74312 10.90214,-10.83181 c 13.22324,-13.1529 13.1529,-13.08256 6.25994,-18.99082 -3.79817,-3.23547 -9.35474,-7.17431 -17.5841,-12.449541 -1.12538,-0.703364 -0.84404,-0.844037 2.18043,-0.844037 6.54128,-0.07034 14.06727,2.672778 22.01529,7.948008 4.92354,3.23548 6.68195,3.79817 8.79204,2.8838 0.98471,-0.42202 1.96942,0.14067 4.07952,2.18042 2.53211,2.46178 2.74311,2.95413 2.39143,5.34557 -0.42202,2.25076 -0.0703,3.16514 2.46178,6.89297 5.97859,8.86238 10.40978,21.6636 8.86238,25.74311 -0.42202,1.05505 -0.91437,0.5627 -2.74312,-2.88379 -2.46177,-4.57186 -7.94801,-12.09786 -12.30887,-16.81039 -4.36085,-4.71254 -4.78287,-4.50153 -17.37308,8.01834 l -10.90215,10.90214 14.91132,14.91132 14.98165,14.98165 -3.02446,2.95413 -2.95413,3.02446 -14.62997,-14.62997 c -8.01835,-8.01834 -14.91132,-14.55963 -15.263,-14.55963 -0.42202,0 -7.17431,6.47095 -15.12232,14.41896 -7.94801,7.94801 -14.77064,14.41896 -15.12233,14.41896 -0.42201,0 -2.18042,-1.40673 -3.8685,-3.16514 z m 32.8471,-27.57186 c -0.28135,-0.28135 -6.7523,5.76758 -14.41896,13.36391 -7.59633,7.59633 -14.20795,13.85627 -14.55964,13.85627 -0.35168,0 5.69725,-6.40061 13.57493,-14.27829 l 14.27828,-14.27828 -2.03975,-1.89908 -1.96942,-1.89909 -14.70031,14.77064 -14.7003,14.77065 2.74312,2.81345 2.74312,2.81346 14.77064,-14.70031 c 8.15902,-8.15902 14.55963,-15.05199 14.27829,-15.33333 z m 33.62079,27.22018 2.03976,-2.18043 -22.08563,-22.08562 -22.08563,-22.15597 -2.3211,2.25077 -2.3211,2.25076 21.94496,22.01529 c 12.09785,12.09786 22.15596,22.01529 22.4373,22.01529 0.21101,0 1.26606,-0.98471 2.39144,-2.11009 z m -15.82569,-43.96024 10.83181,-10.90214 -2.74312,-2.81346 -2.74312,-2.81345 -11.11315,11.04281 -11.11315,11.04281 1.89908,1.96942 1.89908,2.03976 10.76147,-10.76147 c 5.90826,-5.90826 10.76147,-10.40979 10.76147,-10.0581 0,0.42201 -4.57187,5.27522 -10.19878,10.90214 -9.49541,9.49541 -11.04281,11.25382 -9.63608,11.25382 0.28134,0 5.4159,-4.92355 11.39449,-10.90214 z m 31.37003,6.33027 c -0.42202,-2.11009 -0.70336,-2.39143 -1.47706,-1.75841 -0.91437,0.7737 -0.84404,1.12539 0.14067,2.8838 1.47707,2.53211 1.89908,2.11009 1.33639,-1.12539 z m -67.59327,-7.38532 c -0.35168,-0.56269 -1.47706,0.14068 -3.58715,2.18043 -4.00918,3.93884 -4.99389,2.95413 -1.05505,-1.05505 4.00918,-4.07951 2.53211,-5.27522 -1.61774,-1.19571 -1.61773,1.5474 -3.23547,2.88379 -3.58715,2.88379 -0.35168,0 0.84403,-1.5474 2.74312,-3.44649 2.25076,-2.3211 3.0948,-3.58715 2.53211,-3.93883 -0.49236,-0.28135 -2.03976,0.70336 -3.93884,2.53211 -4.00917,3.93883 -4.99388,2.95413 -1.05505,-1.05505 1.82875,-1.89908 2.81346,-3.44648 2.53211,-3.93884 -0.35168,-0.56269 -1.61773,0.28135 -3.93883,2.53211 -1.89909,1.89909 -3.44649,3.0948 -3.44649,2.67279 0,-0.35169 1.26606,-1.96942 2.81346,-3.44649 1.5474,-1.47706 2.81345,-3.37614 2.81345,-4.14984 0,-1.12539 -0.70336,-0.7737 -3.51682,2.03975 -5.20489,5.13456 -5.20489,3.16514 0.0703,-2.25076 5.62691,-5.90826 5.48624,-5.83792 7.87768,-5.83792 1.5474,0 3.23547,1.12538 6.89296,4.71253 l 4.92355,4.71254 3.79816,-3.79816 3.86851,-3.79817 -7.526,-7.66666 c -9.07339,-9.0734 -11.81651,-10.6208 -18.07645,-10.19878 -8.37003,0.49235 -13.85627,6.11927 -14.34862,14.62997 -0.35169,6.33027 0.49235,7.87767 9.91743,17.44342 l 7.87767,7.87768 3.79817,-3.79817 c 2.3211,-2.3211 3.58715,-4.07951 3.23547,-4.6422 z m 66.46789,2.88379 c 0,-0.63302 -0.35168,-1.61773 -0.70336,-2.18042 -0.56269,-0.91438 -0.84404,-0.84404 -2.11009,0.35168 -1.3364,1.33639 -1.3364,1.5474 -0.28135,3.02446 0.91437,1.26606 1.33639,1.47707 2.11009,0.7737 0.56269,-0.42202 0.98471,-1.33639 0.98471,-1.96942 z m -59.43425,-2.88379 2.03976,-2.11009 -6.25994,-6.33027 c -3.44648,-3.51682 -6.7523,-6.33028 -7.31499,-6.33028 -1.5474,0 -3.58715,2.11009 -3.58715,3.72783 0,1.47706 10.90214,13.1529 12.30887,13.1529 0.42201,0 1.68807,-0.98471 2.81345,-2.11009 z m 57.32416,-2.18043 c 0,-2.03975 -1.05505,-2.11009 -2.81346,-0.28134 -1.33639,1.40673 -1.47706,1.89908 -0.70336,2.81345 0.84404,0.98471 1.05505,0.98471 2.18043,-0.0703 0.7737,-0.70337 1.33639,-1.75841 1.33639,-2.46178 z m -1.40673,-3.51682 c 0,-0.211 -0.42202,-0.84403 -0.91437,-1.26605 -1.33639,-1.05505 -5.13456,2.74312 -3.93884,3.93884 0.63303,0.63303 1.33639,0.42202 2.81346,-0.70337 1.12538,-0.7737 2.03975,-1.68807 2.03975,-1.96942 z m -3.93884,-1.26605 c 2.8838,-3.02447 1.61774,-4.29052 -1.40672,-1.40673 -1.26606,1.26606 -2.18043,2.53211 -1.96942,2.88379 0.63302,0.98471 1.33639,0.63303 3.37614,-1.47706 z m -0.28134,-4.92355 c 0,-0.70336 -0.84404,-0.21101 -2.46178,1.33639 -1.33639,1.26606 -2.25076,2.60245 -2.03975,2.95413 0.56269,0.91438 4.50153,-2.88379 4.50153,-4.29052 z m -3.44648,0.56269 c 1.19571,-1.19572 1.96941,-2.39143 1.7584,-2.60244 -0.49235,-0.42202 -4.6422,3.30581 -4.6422,4.22018 0,0.98471 0.70337,0.63303 2.8838,-1.61774 z m -1.61774,-1.5474 c 1.61774,-1.61773 2.95413,-3.30581 2.95413,-3.65749 0,-1.12538 -7.24465,-8.08868 -8.44037,-8.08868 -0.63303,0 -2.53211,1.40672 -4.22018,3.16513 l -3.0948,3.16514 4.14984,4.22018 c 2.3211,2.32111 4.50153,4.22019 4.92355,4.22019 0.42202,0 2.11009,-1.33639 3.72783,-3.02447 z m 1.47706,-9.70642 c -1.89908,-2.39144 -4.14984,-3.65749 -4.14984,-2.25076 0,0.91437 5.13455,5.76758 5.76758,5.4159 0.35168,-0.21101 -0.35168,-1.61774 -1.61774,-3.16514 z m -11.18348,-0.28134 c 1.33639,-1.3364 2.11009,-2.46178 1.68807,-2.46178 -0.91437,0 -4.50153,3.37615 -4.50153,4.22019 0,1.05504 0.21101,0.91437 2.81346,-1.75841 z m -1.75841,-1.75841 c 1.12538,-1.12539 1.82874,-2.25077 1.68807,-2.46178 -0.49235,-0.42202 -4.85321,3.16514 -4.85321,3.93884 0,1.19572 1.12538,0.63303 3.16514,-1.47706 z m -2.3211,-1.19572 c 2.18042,-2.03976 2.46177,-3.02447 1.05504,-3.02447 -1.19572,0 -4.85321,3.79817 -4.22018,4.43119 0.70336,0.77371 1.05504,0.63303 3.16514,-1.40672 z m -2.25077,-1.96942 c 1.26606,-1.33639 1.47707,-1.96942 0.84404,-2.60245 -0.63303,-0.63303 -1.33639,-0.35168 -2.95413,1.19572 -1.5474,1.47706 -1.89908,2.18043 -1.26606,2.60245 1.3364,0.84403 1.54741,0.70336 3.37615,-1.19572 z m -2.11009,-3.93884 c 0,-1.26605 -2.46177,-1.26605 -3.79817,0 -1.12538,1.19572 -1.19571,1.5474 -0.42201,2.53211 0.84403,0.98471 1.05504,0.98471 2.60244,-0.42202 0.84404,-0.91437 1.61774,-1.82874 1.61774,-2.11009 z m -4.6422,-0.49235 c 1.05504,-1.26606 1.05504,-1.3364 -0.7737,-2.18043 -1.5474,-0.70337 -2.03976,-0.63303 -2.95413,0.28134 -1.05505,1.05505 -0.98471,1.19572 0.21101,2.18043 1.75841,1.26606 2.03975,1.26606 3.51682,-0.28134 z m -4.71254,-2.74312 c 0.28135,-0.70337 -4.6422,-1.899086 -5.27523,-1.266059 -0.42202,0.351679 3.58716,2.461779 4.36086,2.180429 0.42201,-0.0703 0.7737,-0.49236 0.91437,-0.91437 z"
           inkscape:connector-curvature="0"
           style="fill:#323232;stroke:none;stroke-width:0.07033639" />
        <path
           id="path9928"
           d="m 348.91706,160.36088 c -11.3945,-11.3945 -20.46789,-20.96025 -20.18655,-21.24159 0.56269,-0.49236 41.99083,40.44342 41.99083,41.42813 0,0.35168 -0.21101,0.56269 -0.56269,0.56269 -0.28135,0 -9.8471,-9.35474 -21.24159,-20.74923 z"
           inkscape:connector-curvature="0"
           style="fill:#323232;stroke:none;stroke-width:0.07033639" />
        <path
           id="path9930"
           d="m 306.36354,124.841 c 2.67278,-2.67278 5.20489,-4.92355 5.55658,-4.92355 0.42201,0 -1.47707,2.25077 -4.14985,4.92355 -2.67278,2.74312 -5.20489,4.92355 -5.55658,4.92355 -0.42201,0 1.47707,-2.18043 4.14985,-4.92355 z"
           inkscape:connector-curvature="0"
           style="fill:#323232;stroke:none;stroke-width:0.07033639" />
        <path
           id="path9932"
           d="m 304.25345,122.02754 c 2.60245,-2.67278 5.13456,-4.6422 5.48624,-4.43119 0.84403,0.49236 -7.94801,9.35474 -9.28441,9.35474 -0.63302,0 1.12539,-2.18043 3.79817,-4.92355 z"
           inkscape:connector-curvature="0"
           style="fill:#323232;stroke:none;stroke-width:0.07033639" />
        <path
           id="path9934"
           d="m 302.49504,119.56577 c 2.46177,-2.46177 4.6422,-4.36086 4.85321,-4.14985 0.42202,0.42202 -7.737,8.72172 -8.65138,8.72172 -0.42201,0 1.26606,-2.03976 3.79817,-4.57187 z"
           inkscape:connector-curvature="0"
           style="fill:#323232;stroke:none;stroke-width:0.07033639" />
        <path
           id="path9936"
           d="m 297.57149,120.05813 c 0,-0.98471 6.9633,-7.45566 7.526,-6.96331 0.28134,0.28135 -1.05505,2.11009 -2.95413,4.00918 -3.30581,3.37614 -4.57187,4.14984 -4.57187,2.95413 z"
           inkscape:connector-curvature="0"
           style="fill:#323232;stroke:none;stroke-width:0.07033639" />
        <path
           id="path9938"
           d="m 299.68158,113.2355 c 1.3364,-1.3364 2.67279,-2.46178 3.0948,-2.46178 0.35169,0 -0.35168,1.12538 -1.68807,2.46178 -1.33639,1.33639 -2.67278,2.46177 -3.0948,2.46177 -0.35168,0 0.35168,-1.12538 1.68807,-2.46177 z"
           inkscape:connector-curvature="0"
           style="fill:#323232;stroke:none;stroke-width:0.07033639" />
        <path
           id="path9940"
           d="m 320.7825,132.22632 c -2.53211,-2.53211 -4.22018,-4.57186 -3.79816,-4.57186 0.91437,0 9.07339,8.29969 8.65137,8.72171 -0.21101,0.21101 -2.39144,-1.68808 -4.85321,-4.14985 z"
           inkscape:connector-curvature="0"
           style="fill:#323232;stroke:none;stroke-width:0.07033639" />
        <path
           id="path9942"
           d="m 370.01797,124.41898 c 0,-0.35168 1.26606,-1.96942 2.81346,-3.44648 1.5474,-1.47707 2.81345,-2.46178 2.81345,-2.03976 0,0.35169 -1.26605,1.96942 -2.81345,3.44649 -1.5474,1.47706 -2.81346,2.46177 -2.81346,2.03975 z"
           inkscape:connector-curvature="0"
           style="fill:#323232;stroke:none;stroke-width:0.07033639" />
      </g>
    </clipPath>
  </defs>
  <sodipodi:namedview
     id="base"
     pagecolor="#ffffff"
     bordercolor="#666666"
     borderopacity="1.0"
     inkscape:pageopacity="0.0"
     inkscape:pageshadow="2"
     inkscape:zoom="1.4"
     inkscape:cx="190.5277"
     inkscape:cy="188.63818"
     inkscape:document-units="mm"
     inkscape:current-layer="layer1"
     showgrid="false"
     inkscape:snap-others="true"
     inkscape:window-width="1920"
     inkscape:window-height="1080"
     inkscape:window-x="0"
     inkscape:window-y="0"
     inkscape:window-maximized="0"
     units="px"
     fit-margin-bottom="0.2"
     inkscape:pagecheckerboard="true" />
  <metadata
     id="metadata5">
    <rdf:RDF>
      <cc:Work
         rdf:about="">
        <dc:format>image/svg+xml</dc:format>
        <dc:type
           rdf:resource="http://purl.org/dc/dcmitype/StillImage" />
        <dc:title></dc:title>
      </cc:Work>
    </rdf:RDF>
  </metadata>
  <g
     inkscape:label="Layer 1"
     id="layer1"
     transform="translate(0,-196.45832)"
     inkscape:groupmode="layer">
    <g
       id="g9884"
       clip-path="url(#clipPath9924)"
       transform="matrix(-1,0,0,1,394.0484,105.85712)"
       style="opacity:1"
       sodipodi:insensitive="true"
       inkscape:groupmode="layer">
      <rect
         ry="0"
         transform="matrix(-0.76688517,-0.64178434,-0.71287222,0.70129395,0,0)"
         id="rect6132"
         width="63.24852"
         height="40.41914"
         x="-329.68045"
         y="-128.2708"
         style="fill:#ce1126;stroke-width:0.07962666" />
      <rect
         clip-path="none"
         inkscape:transform-center-y="-62.132238"
         inkscape:transform-center-x="95.156026"
         transform="matrix(-0.71355134,-0.70060294,-0.70060294,0.71355134,0,0)"
         id="rect6136"
         width="79.916229"
         height="70.067322"
         x="-388.06039"
         y="-238.02686"
         style="fill:#006847;stroke-width:0.20411532" />
      <rect
         clip-path="none"
         inkscape:transform-center-y="-22.191511"
         inkscape:transform-center-x="40.969829"
         transform="matrix(-0.77526913,-0.63163104,-0.7618441,0.64776042,0,0)"
         id="rect6136-6"
         width="31.684834"
         height="27.672583"
         x="-386.48434"
         y="-156.21465"
         style="fill:#006847;stroke-width:0.08077015" />
      <rect
         clip-path="none"
         inkscape:transform-center-y="-20.754412"
         inkscape:transform-center-x="38.425436"
         transform="matrix(-0.77614496,-0.63055451,-0.76274937,0.64669421,0,0)"
         id="rect6136-6-9"
         width="29.68355"
         height="25.923203"
         x="-313.0239"
         y="-159.62094"
         style="fill:#006847;stroke-width:0.07566632" />
      <rect
         transform="rotate(45.043779)"
         y="-172.51888"
         x="329.08279"
         height="52.916664"
         width="41.010418"
         id="rect9756"
         style="opacity:1;fill:#323232;fill-opacity:1;stroke:#000000;stroke-width:0;stroke-linecap:round;stroke-linejoin:bevel;stroke-miterlimit:4;stroke-dasharray:none;stroke-dashoffset:0;stroke-opacity:1;paint-order:normal" />
      <rect
         y="150.62872"
         x="293.87646"
         height="36.191223"
         width="90.147324"
         id="rect9758"
         style="opacity:1;fill:#323232;fill-opacity:1;stroke:#000000;stroke-width:0;stroke-linecap:round;stroke-linejoin:bevel;stroke-miterlimit:4;stroke-dasharray:none;stroke-dashoffset:0;stroke-opacity:1;paint-order:normal" />
    </g>
  </g>
</svg>
